<?xml version="1.0" encoding="utf-8" ?>
<svg baseProfile="tiny" height="100%" version="1.2" width="100%" xmlns="http://www.w3.org/2000/svg" xmlns:ev="http://www.w3.org/2001/xml-events" xmlns:xlink="http://www.w3.org/1999/xlink"><defs /><path d="M 410,483 L 409,484 L 406,484 L 405,485 L 404,485 L 399,490 L 399,491 L 398,492 L 398,495 L 397,496 L 397,502 L 398,503 L 398,505 L 399,506 L 399,507 L 400,508 L 400,509 L 402,511 L 403,511 L 405,513 L 407,513 L 408,514 L 411,514 L 412,515 L 414,515 L 415,514 L 418,514 L 419,513 L 421,513 L 427,507 L 427,505 L 428,504 L 428,501 L 429,500 L 429,497 L 428,496 L 428,493 L 427,492 L 427,491 L 426,490 L 426,489 L 423,486 L 422,486 L 420,484 L 417,484 L 416,483 Z" fill="none" stroke="black" stroke-width="1" /><path d="M 409,484 L 410,483 L 416,483 L 417,484 L 419,484 L 421,486 L 422,486 L 426,490 L 426,491 L 428,493 L 428,496 L 429,497 L 429,500 L 428,501 L 428,504 L 427,505 L 427,506 L 420,513 L 419,513 L 418,514 L 415,514 L 414,515 L 412,515 L 411,514 L 408,514 L 407,513 L 406,513 L 404,511 L 403,511 L 400,508 L 400,507 L 398,505 L 398,503 L 397,502 L 397,496 L 398,495 L 398,493 L 399,492 L 399,491 L 405,485 L 406,485 L 407,484 Z" fill="none" stroke="black" stroke-width="1" /><path d="M 101,483 L 100,484 L 98,484 L 97,485 L 96,485 L 91,490 L 91,491 L 90,492 L 90,494 L 89,495 L 89,502 L 90,503 L 90,505 L 91,506 L 91,507 L 92,508 L 92,509 L 94,511 L 95,511 L 97,513 L 99,513 L 100,514 L 109,514 L 110,513 L 112,513 L 113,512 L 114,512 L 118,508 L 118,507 L 119,506 L 119,504 L 120,503 L 120,494 L 119,493 L 119,491 L 117,489 L 117,488 L 116,487 L 115,487 L 113,485 L 112,485 L 111,484 L 109,484 L 108,483 Z" fill="none" stroke="black" stroke-width="1" /><path d="M 100,484 L 101,483 L 108,483 L 109,484 L 110,484 L 111,485 L 112,485 L 114,487 L 115,487 L 117,489 L 117,490 L 119,492 L 119,493 L 120,494 L 120,503 L 119,504 L 119,505 L 118,506 L 118,507 L 113,512 L 112,512 L 111,513 L 110,513 L 109,514 L 100,514 L 99,513 L 98,513 L 96,511 L 95,511 L 92,508 L 92,507 L 90,505 L 90,503 L 89,502 L 89,495 L 90,494 L 90,493 L 91,492 L 91,491 L 97,485 L 98,485 L 99,484 Z" fill="none" stroke="black" stroke-width="1" /><path d="M 170,312 L 159,323 L 158,323 L 147,334 L 147,338 L 148,339 L 153,339 L 160,332 L 161,332 L 174,319 L 175,319 L 176,318 L 176,313 L 175,312 Z" fill="none" stroke="black" stroke-width="1" /><path d="M 171,312 L 174,312 L 176,314 L 176,317 L 174,319 L 173,319 L 160,332 L 159,332 L 152,339 L 149,339 L 147,337 L 147,335 L 159,323 L 160,323 Z" fill="none" stroke="black" stroke-width="1" /><path d="M 118,304 L 115,307 L 115,308 L 114,309 L 114,312 L 115,313 L 115,315 L 116,316 L 117,316 L 118,317 L 124,317 L 127,314 L 127,312 L 128,311 L 128,310 L 127,309 L 127,307 L 124,304 Z" fill="none" stroke="black" stroke-width="1" /><path d="M 119,304 L 123,304 L 127,308 L 127,309 L 128,310 L 128,311 L 127,312 L 127,313 L 123,317 L 119,317 L 118,316 L 117,316 L 115,314 L 115,313 L 114,312 L 114,309 Z" fill="none" stroke="black" stroke-width="1" /><path d="M 99,303 L 98,304 L 96,304 L 93,307 L 93,310 L 92,311 L 93,312 L 93,314 L 95,316 L 96,316 L 97,317 L 100,317 L 101,316 L 103,316 L 105,314 L 105,313 L 106,312 L 106,306 L 104,304 L 102,304 L 101,303 Z" fill="none" stroke="black" stroke-width="1" /><path d="M 98,304 L 99,303 L 101,303 L 102,304 L 103,304 L 106,307 L 106,311 L 105,312 L 105,313 L 102,316 L 101,316 L 100,317 L 97,317 L 93,313 L 93,312 L 92,311 L 93,310 L 93,308 L 97,304 Z" fill="none" stroke="black" stroke-width="1" /><path d="M 312,285 L 310,287 L 310,288 L 309,289 L 309,290 L 307,292 L 307,293 L 305,295 L 305,296 L 303,298 L 303,299 L 301,301 L 301,302 L 299,304 L 299,305 L 297,307 L 297,308 L 295,310 L 294,310 L 292,312 L 291,312 L 288,315 L 287,315 L 285,317 L 284,317 L 282,319 L 281,319 L 279,321 L 278,321 L 277,322 L 276,322 L 274,324 L 273,324 L 272,325 L 271,325 L 270,326 L 269,326 L 268,327 L 267,327 L 266,328 L 265,328 L 264,329 L 261,329 L 260,330 L 257,330 L 256,331 L 252,331 L 251,332 L 242,332 L 241,333 L 236,333 L 235,332 L 226,332 L 225,331 L 221,331 L 220,330 L 218,330 L 217,329 L 215,329 L 214,328 L 212,328 L 211,327 L 209,327 L 207,325 L 206,325 L 205,324 L 204,324 L 203,323 L 202,323 L 201,322 L 200,322 L 198,320 L 197,320 L 195,318 L 194,318 L 190,314 L 189,314 L 183,308 L 180,308 L 180,315 L 181,316 L 181,317 L 184,320 L 185,320 L 189,324 L 190,324 L 192,326 L 193,326 L 195,328 L 196,328 L 197,329 L 198,329 L 200,331 L 201,331 L 202,332 L 203,332 L 204,333 L 206,333 L 207,334 L 208,334 L 209,335 L 211,335 L 212,336 L 214,336 L 215,337 L 217,337 L 218,338 L 222,338 L 223,339 L 228,339 L 229,340 L 248,340 L 249,339 L 254,339 L 255,338 L 259,338 L 260,337 L 262,337 L 263,336 L 266,336 L 267,335 L 269,335 L 270,334 L 272,334 L 273,333 L 275,333 L 277,331 L 278,331 L 279,330 L 280,330 L 282,328 L 283,328 L 286,325 L 287,325 L 291,321 L 292,321 L 296,317 L 297,317 L 299,319 L 299,320 L 302,323 L 302,324 L 304,326 L 304,327 L 307,330 L 307,331 L 309,333 L 309,334 L 312,337 L 312,338 L 315,341 L 319,341 L 321,339 L 321,336 L 318,333 L 318,332 L 314,328 L 314,327 L 310,323 L 310,322 L 306,318 L 306,317 L 302,313 L 302,311 L 304,309 L 305,309 L 309,305 L 309,304 L 312,301 L 312,300 L 313,299 L 313,297 L 314,296 L 314,295 L 315,294 L 315,291 L 316,290 L 316,286 L 315,286 L 314,285 Z" fill="none" stroke="black" stroke-width="1" /><path d="M 313,285 L 314,285 L 316,287 L 316,290 L 315,291 L 315,294 L 314,295 L 314,296 L 313,297 L 313,298 L 312,299 L 312,300 L 309,303 L 309,304 L 304,309 L 303,309 L 302,310 L 302,314 L 306,318 L 306,319 L 310,323 L 310,324 L 314,328 L 314,329 L 318,333 L 318,334 L 321,337 L 321,338 L 318,341 L 316,341 L 312,337 L 312,336 L 309,333 L 309,332 L 307,330 L 307,329 L 304,326 L 304,325 L 302,323 L 302,322 L 299,319 L 299,318 L 298,317 L 296,317 L 295,318 L 294,318 L 291,321 L 290,321 L 286,325 L 285,325 L 282,328 L 281,328 L 279,330 L 278,330 L 277,331 L 276,331 L 274,333 L 273,333 L 272,334 L 270,334 L 269,335 L 267,335 L 266,336 L 263,336 L 262,337 L 260,337 L 259,338 L 255,338 L 254,339 L 249,339 L 248,340 L 229,340 L 228,339 L 223,339 L 222,338 L 218,338 L 217,337 L 215,337 L 214,336 L 212,336 L 211,335 L 209,335 L 208,334 L 207,334 L 206,333 L 205,333 L 204,332 L 203,332 L 202,331 L 201,331 L 199,329 L 198,329 L 197,328 L 196,328 L 194,326 L 193,326 L 191,324 L 190,324 L 186,320 L 185,320 L 180,315 L 180,309 L 181,308 L 182,308 L 188,314 L 189,314 L 193,318 L 194,318 L 196,320 L 197,320 L 199,322 L 200,322 L 201,323 L 202,323 L 203,324 L 204,324 L 205,325 L 206,325 L 207,326 L 208,326 L 209,327 L 211,327 L 212,328 L 214,328 L 215,329 L 217,329 L 218,330 L 220,330 L 221,331 L 225,331 L 226,332 L 235,332 L 236,333 L 241,333 L 242,332 L 251,332 L 252,331 L 256,331 L 257,330 L 260,330 L 261,329 L 264,329 L 265,328 L 266,328 L 267,327 L 269,327 L 270,326 L 271,326 L 272,325 L 273,325 L 274,324 L 275,324 L 277,322 L 278,322 L 279,321 L 280,321 L 282,319 L 283,319 L 285,317 L 286,317 L 288,315 L 289,315 L 292,312 L 293,312 L 295,310 L 296,310 L 297,309 L 297,308 L 299,306 L 299,305 L 301,303 L 301,302 L 303,300 L 303,299 L 305,297 L 305,296 L 307,294 L 307,293 L 309,291 L 309,290 L 310,289 L 310,288 Z" fill="none" stroke="black" stroke-width="1" /><path d="M 117,282 L 115,284 L 115,285 L 114,286 L 114,288 L 113,289 L 113,293 L 115,293 L 116,294 L 127,294 L 127,286 L 126,285 L 126,284 L 124,282 Z" fill="none" stroke="black" stroke-width="1" /><path d="M 118,282 L 123,282 L 127,286 L 127,293 L 126,294 L 116,294 L 115,293 L 114,293 L 113,292 L 113,289 L 114,288 L 114,287 L 115,286 L 115,285 Z" fill="none" stroke="black" stroke-width="1" /><path d="M 96,282 L 94,284 L 94,285 L 93,286 L 93,288 L 92,289 L 92,292 L 93,293 L 97,293 L 98,294 L 104,294 L 104,293 L 105,292 L 105,285 L 102,282 Z" fill="none" stroke="black" stroke-width="1" /><path d="M 97,282 L 101,282 L 105,286 L 105,292 L 103,294 L 98,294 L 97,293 L 94,293 L 92,291 L 92,289 L 93,288 L 93,287 L 94,286 L 94,285 Z" fill="none" stroke="black" stroke-width="1" /><path d="M 160,280 L 159,281 L 159,285 L 160,286 L 160,287 L 161,288 L 161,289 L 162,290 L 162,291 L 164,293 L 164,294 L 165,295 L 165,296 L 166,297 L 166,298 L 167,299 L 167,300 L 168,301 L 168,302 L 169,303 L 169,304 L 170,305 L 170,306 L 172,308 L 174,308 L 175,307 L 176,307 L 177,306 L 177,302 L 176,301 L 176,300 L 175,299 L 175,298 L 174,297 L 174,296 L 173,295 L 173,294 L 172,293 L 172,292 L 171,291 L 171,290 L 169,288 L 169,287 L 168,286 L 168,285 L 167,284 L 167,283 L 166,282 L 166,281 L 165,280 Z" fill="none" stroke="black" stroke-width="1" /><path d="M 161,280 L 164,280 L 166,282 L 166,283 L 167,284 L 167,285 L 168,286 L 168,287 L 169,288 L 169,289 L 171,291 L 171,292 L 172,293 L 172,294 L 173,295 L 173,296 L 174,297 L 174,298 L 175,299 L 175,300 L 176,301 L 176,302 L 177,303 L 177,305 L 174,308 L 173,308 L 170,305 L 170,304 L 169,303 L 169,302 L 168,301 L 168,300 L 167,299 L 167,298 L 166,297 L 166,296 L 165,295 L 165,294 L 164,293 L 164,292 L 162,290 L 162,289 L 161,288 L 161,287 L 160,286 L 160,285 L 159,284 L 159,282 Z" fill="none" stroke="black" stroke-width="1" /><path d="M 355,266 L 354,267 L 353,267 L 353,270 L 354,271 L 354,273 L 355,274 L 355,276 L 356,277 L 356,279 L 357,280 L 357,281 L 358,282 L 360,282 L 360,281 L 361,280 L 360,279 L 360,274 L 359,273 L 359,271 L 358,270 L 358,267 L 357,266 Z" fill="none" stroke="black" stroke-width="1" /><path d="M 355,266 L 356,266 L 358,268 L 358,270 L 359,271 L 359,273 L 360,274 L 360,279 L 361,280 L 359,282 L 357,280 L 357,279 L 356,278 L 356,277 L 355,276 L 355,274 L 354,273 L 354,271 L 353,270 L 353,268 Z" fill="none" stroke="black" stroke-width="1" /><path d="M 98,260 L 97,261 L 96,261 L 95,262 L 93,262 L 93,263 L 92,264 L 92,269 L 95,272 L 96,272 L 97,273 L 100,273 L 101,272 L 103,272 L 103,270 L 104,269 L 104,265 L 105,264 L 105,262 L 104,261 L 104,260 Z" fill="none" stroke="black" stroke-width="1" /><path d="M 97,261 L 98,260 L 103,260 L 105,262 L 105,264 L 104,265 L 104,269 L 103,270 L 103,271 L 102,272 L 101,272 L 100,273 L 97,273 L 92,268 L 92,264 L 94,262 L 95,262 L 96,261 Z" fill="none" stroke="black" stroke-width="1" /><path d="M 119,259 L 118,260 L 117,260 L 114,263 L 114,269 L 117,272 L 118,272 L 119,273 L 122,273 L 123,272 L 125,272 L 127,270 L 127,268 L 128,267 L 128,265 L 127,264 L 127,262 L 125,260 L 124,260 L 123,259 Z" fill="none" stroke="black" stroke-width="1" /><path d="M 119,259 L 123,259 L 127,263 L 127,264 L 128,265 L 128,267 L 127,268 L 127,269 L 124,272 L 123,272 L 122,273 L 119,273 L 114,268 L 114,264 Z" fill="none" stroke="black" stroke-width="1" /><path d="M 121,238 L 120,239 L 117,239 L 116,240 L 115,240 L 115,242 L 114,243 L 114,246 L 115,247 L 115,249 L 116,250 L 125,250 L 126,249 L 127,249 L 127,247 L 128,246 L 128,243 L 127,242 L 127,240 L 126,239 L 124,239 L 123,238 Z" fill="none" stroke="black" stroke-width="1" /><path d="M 120,239 L 121,238 L 123,238 L 124,239 L 125,239 L 127,241 L 127,242 L 128,243 L 128,246 L 127,247 L 127,248 L 126,249 L 125,249 L 124,250 L 117,250 L 115,248 L 115,247 L 114,246 L 114,243 L 115,242 L 115,241 L 116,240 L 117,240 L 118,239 Z" fill="none" stroke="black" stroke-width="1" /><path d="M 95,238 L 94,239 L 93,239 L 92,240 L 92,246 L 95,249 L 96,249 L 97,250 L 104,250 L 105,249 L 105,248 L 106,247 L 106,244 L 105,243 L 105,241 L 103,239 L 101,239 L 100,238 Z" fill="none" stroke="black" stroke-width="1" /><path d="M 95,238 L 100,238 L 101,239 L 102,239 L 105,242 L 105,243 L 106,244 L 106,247 L 103,250 L 97,250 L 92,245 L 92,241 Z" fill="none" stroke="black" stroke-width="1" /><path d="M 342,230 L 341,231 L 341,232 L 338,235 L 292,235 L 291,236 L 290,236 L 288,238 L 288,267 L 290,269 L 336,269 L 337,270 L 338,270 L 341,273 L 341,274 L 343,276 L 346,276 L 346,275 L 347,274 L 347,272 L 346,271 L 346,232 L 345,231 L 345,230 Z" fill="none" stroke="black" stroke-width="1" /><path d="M 343,230 L 344,230 L 346,232 L 346,271 L 347,272 L 347,274 L 345,276 L 344,276 L 341,273 L 341,272 L 339,270 L 337,270 L 336,269 L 291,269 L 288,266 L 288,239 L 292,235 L 339,235 L 341,233 L 341,232 Z" fill="none" stroke="black" stroke-width="1" /><path d="M 295,239 L 294,240 L 293,240 L 293,241 L 292,242 L 292,263 L 294,265 L 340,265 L 341,264 L 341,241 L 340,240 L 339,240 L 338,239 Z" fill="none" stroke="black" stroke-width="1" /><path d="M 295,239 L 338,239 L 341,242 L 341,263 L 339,265 L 295,265 L 294,264 L 293,264 L 292,263 L 292,242 Z" fill="none" stroke="black" stroke-width="1" /><path d="M 355,228 L 355,230 L 354,231 L 354,234 L 355,235 L 355,236 L 357,236 L 358,235 L 358,234 L 359,233 L 359,230 L 358,229 L 358,228 Z" fill="none" stroke="black" stroke-width="1" /><path d="M 355,229 L 356,228 L 357,228 L 359,230 L 359,233 L 356,236 L 354,234 L 354,231 L 355,230 Z" fill="none" stroke="black" stroke-width="1" /><path d="M 292,217 L 292,221 L 295,221 L 296,220 L 296,217 Z" fill="none" stroke="black" stroke-width="1" /><path d="M 292,218 L 293,217 L 295,217 L 296,218 L 296,219 L 294,221 L 293,221 L 292,220 Z" fill="none" stroke="black" stroke-width="1" /><path d="M 408,212 L 407,213 L 401,213 L 400,214 L 397,214 L 396,215 L 394,215 L 393,216 L 392,216 L 391,217 L 390,217 L 389,218 L 388,218 L 387,219 L 386,219 L 383,222 L 382,222 L 377,227 L 377,228 L 375,230 L 375,231 L 373,233 L 373,234 L 372,235 L 372,237 L 371,238 L 371,240 L 370,241 L 370,243 L 369,244 L 369,260 L 370,261 L 370,264 L 371,265 L 371,267 L 372,268 L 372,269 L 373,270 L 373,271 L 374,272 L 374,273 L 376,275 L 376,276 L 384,284 L 385,284 L 387,286 L 388,286 L 389,287 L 390,287 L 391,288 L 392,288 L 393,289 L 395,289 L 396,290 L 398,290 L 399,291 L 403,291 L 404,292 L 417,292 L 418,291 L 421,291 L 422,290 L 424,290 L 425,289 L 427,289 L 428,288 L 429,288 L 430,287 L 431,287 L 433,285 L 434,285 L 437,282 L 438,282 L 441,279 L 441,278 L 444,275 L 444,274 L 446,272 L 446,271 L 447,270 L 447,268 L 448,267 L 448,265 L 449,264 L 449,262 L 450,261 L 450,256 L 451,255 L 451,250 L 450,249 L 450,244 L 449,243 L 449,240 L 448,239 L 448,237 L 447,236 L 447,235 L 446,234 L 446,233 L 445,232 L 445,231 L 442,228 L 442,227 L 436,221 L 435,221 L 433,219 L 432,219 L 430,217 L 429,217 L 428,216 L 426,216 L 425,215 L 423,215 L 422,214 L 419,214 L 418,213 L 413,213 L 412,212 Z" fill="none" stroke="black" stroke-width="1" /><path d="M 407,213 L 408,212 L 412,212 L 413,213 L 418,213 L 419,214 L 422,214 L 423,215 L 425,215 L 426,216 L 427,216 L 428,217 L 429,217 L 431,219 L 432,219 L 434,221 L 435,221 L 442,228 L 442,229 L 445,232 L 445,233 L 446,234 L 446,235 L 447,236 L 447,237 L 448,238 L 448,239 L 449,240 L 449,243 L 450,244 L 450,249 L 451,250 L 451,255 L 450,256 L 450,261 L 449,262 L 449,264 L 448,265 L 448,267 L 447,268 L 447,269 L 446,270 L 446,271 L 444,273 L 444,274 L 441,277 L 441,278 L 437,282 L 436,282 L 433,285 L 432,285 L 430,287 L 429,287 L 428,288 L 427,288 L 426,289 L 425,289 L 424,290 L 422,290 L 421,291 L 418,291 L 417,292 L 404,292 L 403,291 L 399,291 L 398,290 L 396,290 L 395,289 L 393,289 L 391,287 L 390,287 L 389,286 L 388,286 L 386,284 L 385,284 L 376,275 L 376,274 L 374,272 L 374,271 L 373,270 L 373,269 L 372,268 L 372,267 L 371,266 L 371,265 L 370,264 L 370,261 L 369,260 L 369,244 L 370,243 L 370,241 L 371,240 L 371,238 L 372,237 L 372,236 L 373,235 L 373,234 L 375,232 L 375,231 L 377,229 L 377,228 L 383,222 L 384,222 L 387,219 L 388,219 L 389,218 L 390,218 L 391,217 L 392,217 L 394,215 L 396,215 L 397,214 L 400,214 L 401,213 Z" fill="none" stroke="black" stroke-width="1" /><path d="M 403,217 L 402,218 L 399,218 L 398,219 L 396,219 L 395,220 L 393,220 L 391,222 L 390,222 L 389,223 L 388,223 L 385,226 L 384,226 L 381,229 L 381,230 L 378,233 L 378,234 L 377,235 L 377,236 L 376,237 L 376,238 L 375,239 L 375,241 L 374,242 L 374,244 L 373,245 L 373,259 L 374,260 L 374,263 L 375,264 L 375,265 L 376,266 L 376,268 L 377,269 L 377,270 L 379,272 L 379,273 L 386,280 L 387,280 L 389,282 L 390,282 L 391,283 L 392,283 L 393,284 L 394,284 L 395,285 L 397,285 L 398,286 L 400,286 L 401,287 L 407,287 L 408,288 L 412,288 L 413,287 L 419,287 L 420,286 L 422,286 L 423,285 L 425,285 L 426,284 L 427,284 L 428,283 L 429,283 L 430,282 L 431,282 L 434,279 L 435,279 L 439,275 L 439,274 L 442,271 L 442,270 L 443,269 L 443,268 L 444,267 L 444,266 L 445,265 L 445,263 L 446,262 L 446,259 L 447,258 L 447,246 L 446,245 L 446,242 L 445,241 L 445,239 L 444,238 L 444,237 L 443,236 L 443,235 L 442,234 L 442,233 L 439,230 L 439,229 L 435,225 L 434,225 L 431,222 L 430,222 L 429,221 L 428,221 L 427,220 L 425,220 L 424,219 L 422,219 L 421,218 L 418,218 L 417,217 Z" fill="none" stroke="black" stroke-width="1" /><path d="M 402,218 L 403,217 L 417,217 L 418,218 L 421,218 L 422,219 L 424,219 L 425,220 L 426,220 L 427,221 L 428,221 L 429,222 L 430,222 L 433,225 L 434,225 L 439,230 L 439,231 L 442,234 L 442,235 L 443,236 L 443,237 L 445,239 L 445,241 L 446,242 L 446,245 L 447,246 L 447,258 L 446,259 L 446,262 L 445,263 L 445,265 L 443,267 L 443,268 L 442,269 L 442,270 L 440,272 L 440,273 L 434,279 L 433,279 L 430,282 L 429,282 L 428,283 L 427,283 L 425,285 L 423,285 L 422,286 L 420,286 L 419,287 L 413,287 L 412,288 L 408,288 L 407,287 L 401,287 L 400,286 L 398,286 L 397,285 L 395,285 L 393,283 L 392,283 L 391,282 L 390,282 L 388,280 L 387,280 L 379,272 L 379,271 L 377,269 L 377,268 L 376,267 L 376,266 L 375,265 L 375,264 L 374,263 L 374,260 L 373,259 L 373,245 L 374,244 L 374,242 L 375,241 L 375,240 L 376,239 L 376,238 L 377,237 L 377,236 L 378,235 L 378,234 L 381,231 L 381,230 L 385,226 L 386,226 L 389,223 L 390,223 L 391,222 L 392,222 L 394,220 L 395,220 L 396,219 L 398,219 L 399,218 Z" fill="none" stroke="black" stroke-width="1" /><path d="M 383,244 L 379,248 L 379,252 L 383,252 L 385,250 L 385,244 Z" fill="none" stroke="black" stroke-width="1" /><path d="M 384,244 L 385,245 L 385,249 L 382,252 L 380,252 L 379,251 L 379,249 Z" fill="none" stroke="black" stroke-width="1" /><path d="M 398,222 L 397,223 L 396,223 L 381,238 L 381,241 L 384,241 L 388,237 L 389,237 L 391,235 L 392,235 L 393,234 L 398,234 L 399,233 L 400,233 L 400,231 L 398,229 L 399,228 L 400,228 L 401,227 L 402,228 L 402,231 L 403,232 L 406,232 L 407,231 L 408,231 L 409,230 L 410,230 L 411,229 L 413,229 L 414,228 L 416,228 L 418,230 L 418,231 L 420,233 L 422,233 L 423,234 L 424,234 L 425,235 L 431,235 L 434,238 L 434,240 L 431,243 L 430,243 L 428,245 L 426,245 L 425,244 L 427,242 L 427,239 L 426,239 L 425,238 L 423,238 L 422,239 L 421,239 L 420,240 L 418,238 L 418,235 L 417,234 L 416,234 L 415,233 L 410,233 L 409,234 L 407,234 L 406,235 L 406,240 L 407,241 L 407,242 L 409,244 L 408,245 L 407,245 L 404,242 L 404,241 L 403,240 L 403,238 L 402,237 L 399,237 L 394,242 L 394,243 L 393,244 L 393,245 L 391,247 L 391,249 L 390,250 L 390,254 L 391,255 L 392,255 L 394,257 L 395,257 L 403,265 L 403,268 L 402,269 L 402,270 L 400,272 L 399,272 L 397,274 L 396,274 L 394,272 L 394,270 L 397,267 L 397,264 L 392,259 L 391,259 L 390,258 L 389,259 L 386,259 L 384,257 L 380,257 L 379,258 L 379,259 L 380,260 L 380,261 L 381,262 L 381,264 L 383,266 L 383,267 L 385,269 L 385,270 L 392,277 L 393,277 L 395,279 L 396,279 L 398,281 L 400,281 L 401,282 L 402,281 L 403,281 L 404,280 L 404,279 L 405,278 L 406,279 L 406,280 L 413,280 L 414,281 L 424,281 L 426,279 L 427,279 L 435,271 L 435,270 L 437,268 L 437,267 L 439,265 L 439,263 L 440,262 L 440,260 L 441,259 L 441,255 L 442,254 L 442,247 L 441,246 L 441,242 L 440,241 L 440,239 L 438,237 L 438,236 L 435,233 L 434,233 L 432,231 L 431,231 L 430,230 L 429,230 L 428,229 L 427,229 L 424,226 L 424,224 L 422,222 Z" fill="none" stroke="black" stroke-width="1" /><path d="M 408,273 L 409,272 L 410,272 L 412,274 L 410,276 L 407,276 L 405,278 L 404,277 L 404,276 L 407,273 Z" fill="none" stroke="black" stroke-width="1" /><path d="M 398,222 L 421,222 L 424,225 L 424,226 L 425,227 L 425,228 L 426,229 L 427,229 L 428,230 L 429,230 L 430,231 L 431,231 L 433,233 L 434,233 L 438,237 L 438,238 L 440,240 L 440,241 L 441,242 L 441,246 L 442,247 L 442,254 L 441,255 L 441,259 L 440,260 L 440,262 L 439,263 L 439,264 L 437,266 L 437,267 L 435,269 L 435,270 L 426,279 L 425,279 L 423,281 L 414,281 L 413,280 L 407,280 L 406,279 L 406,278 L 408,276 L 410,276 L 411,275 L 412,275 L 412,273 L 411,273 L 410,272 L 409,272 L 408,273 L 406,273 L 404,275 L 404,279 L 401,282 L 400,281 L 399,281 L 397,279 L 396,279 L 394,277 L 393,277 L 385,269 L 385,268 L 383,266 L 383,265 L 381,263 L 381,262 L 380,261 L 380,260 L 379,259 L 379,258 L 380,257 L 383,257 L 385,259 L 389,259 L 390,258 L 397,265 L 397,266 L 394,269 L 394,273 L 395,274 L 398,274 L 400,272 L 401,272 L 402,271 L 402,270 L 403,269 L 403,264 L 396,257 L 395,257 L 393,255 L 392,255 L 390,253 L 390,250 L 391,249 L 391,248 L 393,246 L 393,245 L 394,244 L 394,243 L 400,237 L 401,237 L 403,239 L 403,240 L 404,241 L 404,243 L 406,245 L 409,245 L 409,243 L 407,241 L 407,240 L 406,239 L 406,236 L 408,234 L 409,234 L 410,233 L 415,233 L 418,236 L 418,238 L 419,239 L 419,240 L 421,240 L 422,239 L 423,239 L 424,238 L 425,238 L 427,240 L 427,241 L 426,242 L 426,243 L 425,244 L 426,245 L 429,245 L 432,242 L 433,242 L 434,241 L 434,237 L 433,236 L 432,236 L 431,235 L 425,235 L 424,234 L 423,234 L 422,233 L 421,233 L 418,230 L 418,229 L 417,228 L 414,228 L 413,229 L 411,229 L 410,230 L 409,230 L 408,231 L 407,231 L 406,232 L 404,232 L 402,230 L 402,229 L 403,228 L 402,228 L 401,227 L 400,228 L 398,228 L 398,230 L 400,232 L 398,234 L 393,234 L 392,235 L 390,235 L 388,237 L 387,237 L 383,241 L 382,241 L 381,240 L 381,239 Z" fill="none" stroke="black" stroke-width="1" /><path d="M 387,262 L 387,264 L 388,265 L 392,265 L 392,263 L 391,263 L 390,262 Z" fill="none" stroke="black" stroke-width="1" /><path d="M 387,263 L 388,262 L 389,262 L 390,263 L 391,263 L 392,264 L 391,265 L 389,265 Z" fill="none" stroke="black" stroke-width="1" /><path d="M 424,254 L 422,256 L 422,258 L 423,259 L 423,261 L 428,266 L 428,267 L 426,269 L 423,269 L 422,268 L 419,268 L 418,267 L 415,267 L 415,272 L 414,273 L 415,274 L 415,275 L 416,276 L 419,276 L 420,275 L 423,275 L 424,274 L 425,274 L 428,271 L 429,271 L 432,268 L 432,267 L 435,264 L 435,263 L 437,261 L 437,258 L 436,257 L 432,257 L 431,256 L 430,256 L 428,254 Z" fill="none" stroke="black" stroke-width="1" /><path d="M 425,254 L 427,254 L 429,256 L 431,256 L 432,257 L 435,257 L 437,259 L 437,260 L 435,262 L 435,263 L 432,266 L 432,267 L 428,271 L 427,271 L 424,274 L 423,274 L 422,275 L 420,275 L 419,276 L 417,276 L 414,273 L 415,272 L 415,268 L 416,267 L 418,267 L 419,268 L 422,268 L 423,269 L 427,269 L 427,268 L 428,267 L 428,266 L 427,265 L 427,264 L 423,260 L 423,259 L 422,258 L 422,257 Z" fill="none" stroke="black" stroke-width="1" /><path d="M 432,247 L 431,248 L 430,248 L 430,251 L 431,252 L 439,252 L 439,248 L 438,247 Z" fill="none" stroke="black" stroke-width="1" /><path d="M 432,247 L 437,247 L 439,249 L 439,251 L 438,252 L 432,252 L 430,250 L 430,249 Z" fill="none" stroke="black" stroke-width="1" /><path d="M 234,206 L 233,207 L 230,207 L 229,208 L 227,208 L 226,209 L 225,209 L 224,210 L 223,210 L 222,211 L 221,211 L 220,212 L 219,212 L 209,222 L 209,223 L 207,225 L 207,226 L 206,227 L 206,228 L 205,229 L 205,231 L 204,232 L 204,234 L 203,235 L 203,238 L 202,239 L 202,246 L 201,247 L 201,248 L 202,249 L 202,256 L 203,257 L 203,259 L 204,260 L 204,262 L 205,263 L 205,264 L 206,265 L 206,266 L 207,267 L 207,268 L 209,270 L 209,271 L 216,278 L 217,278 L 219,280 L 220,280 L 221,281 L 222,281 L 223,282 L 224,282 L 225,283 L 227,283 L 228,284 L 229,284 L 230,285 L 233,285 L 233,283 L 232,283 L 229,280 L 228,280 L 225,277 L 224,277 L 218,271 L 218,270 L 216,268 L 216,267 L 215,266 L 215,265 L 213,263 L 213,261 L 212,260 L 212,258 L 211,257 L 211,241 L 212,240 L 212,238 L 213,237 L 213,235 L 214,234 L 214,233 L 215,232 L 215,231 L 217,229 L 217,228 L 220,225 L 220,224 L 223,221 L 224,221 L 227,218 L 228,218 L 230,216 L 231,216 L 232,215 L 233,215 L 234,214 L 235,214 L 236,213 L 239,213 L 240,212 L 254,212 L 255,213 L 260,213 L 261,214 L 263,214 L 261,214 L 260,213 L 255,213 L 254,212 L 240,212 L 239,213 L 236,213 L 235,214 L 234,214 L 233,215 L 231,215 L 230,216 L 229,216 L 227,218 L 226,218 L 223,221 L 222,221 L 220,223 L 220,224 L 217,227 L 217,228 L 215,230 L 215,231 L 214,232 L 214,234 L 213,235 L 213,237 L 212,238 L 212,240 L 211,241 L 211,257 L 212,258 L 212,260 L 213,261 L 213,263 L 214,264 L 214,265 L 215,266 L 215,267 L 216,268 L 216,269 L 218,271 L 218,272 L 223,277 L 224,277 L 227,280 L 228,280 L 230,282 L 231,282 L 233,284 L 232,285 L 230,285 L 229,284 L 228,284 L 227,283 L 225,283 L 223,281 L 222,281 L 221,280 L 220,280 L 218,278 L 217,278 L 209,270 L 209,269 L 207,267 L 207,266 L 206,265 L 206,264 L 204,262 L 204,260 L 203,259 L 203,257 L 202,256 L 202,249 L 201,248 L 201,247 L 202,246 L 202,239 L 203,238 L 203,235 L 204,234 L 204,232 L 205,231 L 205,230 L 206,229 L 206,228 L 207,227 L 207,226 L 209,224 L 209,223 L 220,212 L 221,212 L 222,211 L 223,211 L 225,209 L 226,209 L 227,208 L 229,208 L 230,207 L 233,207 L 234,206 L 248,206 L 249,207 L 252,207 L 253,208 L 255,208 L 256,209 L 258,209 L 260,211 L 261,211 L 262,212 L 263,212 L 262,211 L 261,211 L 260,210 L 259,210 L 258,209 L 256,209 L 255,208 L 253,208 L 252,207 L 249,207 L 248,206 Z" fill="none" stroke="black" stroke-width="1" /><path d="M 197,129 L 196,130 L 184,130 L 183,131 L 178,131 L 177,132 L 173,132 L 172,133 L 170,133 L 169,134 L 167,134 L 166,135 L 164,135 L 163,136 L 161,136 L 160,137 L 159,137 L 158,138 L 157,138 L 156,139 L 154,139 L 152,141 L 151,141 L 150,142 L 149,142 L 147,144 L 146,144 L 143,147 L 142,147 L 130,159 L 130,160 L 128,162 L 128,163 L 126,165 L 126,166 L 125,167 L 125,168 L 124,169 L 124,170 L 122,172 L 122,174 L 121,175 L 121,176 L 120,177 L 120,179 L 119,180 L 119,182 L 118,183 L 118,186 L 117,187 L 117,192 L 116,193 L 116,199 L 115,200 L 115,208 L 114,209 L 114,219 L 115,220 L 115,221 L 116,222 L 118,222 L 119,223 L 187,223 L 188,222 L 189,222 L 191,220 L 191,219 L 193,217 L 193,216 L 195,214 L 195,213 L 207,201 L 208,201 L 211,198 L 212,198 L 213,197 L 214,197 L 215,196 L 216,196 L 217,195 L 218,195 L 220,193 L 222,193 L 223,192 L 225,192 L 226,191 L 230,191 L 231,190 L 251,190 L 252,191 L 256,191 L 257,192 L 260,192 L 261,193 L 266,193 L 266,187 L 264,187 L 263,186 L 260,186 L 259,185 L 255,185 L 254,184 L 245,184 L 244,183 L 241,183 L 240,184 L 231,184 L 230,185 L 226,185 L 225,186 L 223,186 L 222,187 L 220,187 L 219,188 L 217,188 L 216,189 L 215,189 L 214,190 L 213,190 L 212,191 L 211,191 L 210,192 L 209,192 L 207,194 L 206,194 L 203,197 L 202,197 L 194,205 L 194,206 L 190,210 L 190,211 L 188,213 L 188,214 L 183,219 L 121,219 L 120,218 L 119,218 L 117,216 L 117,211 L 118,210 L 118,204 L 119,203 L 119,198 L 120,197 L 120,192 L 121,191 L 121,187 L 122,186 L 122,184 L 123,183 L 123,181 L 124,180 L 124,178 L 125,177 L 125,175 L 127,173 L 127,172 L 128,171 L 128,170 L 130,168 L 130,167 L 131,166 L 131,165 L 135,161 L 135,160 L 144,151 L 145,151 L 149,147 L 150,147 L 152,145 L 153,145 L 154,144 L 155,144 L 157,142 L 158,142 L 159,141 L 160,141 L 161,140 L 162,140 L 163,139 L 164,139 L 165,138 L 167,138 L 168,137 L 170,137 L 171,136 L 174,136 L 175,135 L 178,135 L 179,134 L 185,134 L 186,133 L 201,133 L 202,132 L 210,132 L 211,133 L 225,133 L 226,134 L 231,134 L 232,135 L 237,135 L 238,136 L 240,136 L 241,137 L 244,137 L 245,138 L 247,138 L 248,139 L 249,139 L 250,140 L 252,140 L 253,141 L 254,141 L 255,142 L 256,142 L 258,144 L 259,144 L 260,145 L 261,145 L 262,146 L 263,146 L 265,148 L 266,148 L 269,151 L 270,151 L 272,153 L 273,153 L 288,168 L 288,169 L 292,173 L 292,174 L 294,176 L 294,177 L 296,179 L 296,180 L 297,181 L 297,182 L 299,184 L 299,185 L 300,186 L 300,187 L 301,188 L 301,189 L 302,190 L 302,192 L 303,193 L 303,196 L 304,197 L 304,199 L 305,200 L 305,218 L 304,219 L 304,225 L 305,226 L 309,226 L 310,225 L 311,225 L 311,212 L 310,211 L 310,205 L 309,204 L 309,201 L 308,200 L 308,197 L 307,196 L 307,194 L 306,193 L 306,191 L 305,190 L 305,188 L 304,187 L 304,186 L 303,185 L 303,183 L 302,182 L 302,181 L 300,179 L 300,178 L 299,177 L 299,176 L 298,175 L 298,174 L 295,171 L 295,170 L 293,168 L 293,167 L 287,161 L 287,160 L 286,159 L 285,159 L 277,151 L 276,151 L 272,147 L 271,147 L 270,146 L 269,146 L 267,144 L 266,144 L 264,142 L 263,142 L 262,141 L 261,141 L 260,140 L 259,140 L 258,139 L 256,139 L 255,138 L 254,138 L 253,137 L 251,137 L 250,136 L 249,136 L 248,135 L 246,135 L 245,134 L 242,134 L 241,133 L 239,133 L 238,132 L 234,132 L 233,131 L 228,131 L 227,130 L 218,130 L 217,129 Z" fill="none" stroke="black" stroke-width="1" /><path d="M 196,130 L 197,129 L 217,129 L 218,130 L 227,130 L 228,131 L 233,131 L 234,132 L 238,132 L 239,133 L 241,133 L 242,134 L 245,134 L 246,135 L 248,135 L 249,136 L 250,136 L 251,137 L 253,137 L 254,138 L 255,138 L 256,139 L 257,139 L 258,140 L 259,140 L 260,141 L 261,141 L 262,142 L 263,142 L 265,144 L 266,144 L 268,146 L 269,146 L 270,147 L 271,147 L 275,151 L 276,151 L 284,159 L 285,159 L 287,161 L 287,162 L 293,168 L 293,169 L 295,171 L 295,172 L 298,175 L 298,176 L 299,177 L 299,178 L 300,179 L 300,180 L 302,182 L 302,183 L 303,184 L 303,185 L 304,186 L 304,187 L 305,188 L 305,190 L 306,191 L 306,193 L 307,194 L 307,196 L 308,197 L 308,200 L 309,201 L 309,204 L 310,205 L 310,211 L 311,212 L 311,224 L 309,226 L 306,226 L 304,224 L 304,219 L 305,218 L 305,200 L 304,199 L 304,197 L 303,196 L 303,193 L 302,192 L 302,190 L 301,189 L 301,188 L 300,187 L 300,185 L 299,184 L 299,183 L 297,181 L 297,180 L 296,179 L 296,178 L 294,176 L 294,175 L 292,173 L 292,172 L 288,168 L 288,167 L 274,153 L 273,153 L 271,151 L 270,151 L 267,148 L 266,148 L 264,146 L 263,146 L 262,145 L 261,145 L 260,144 L 259,144 L 257,142 L 255,142 L 254,141 L 253,141 L 252,140 L 250,140 L 249,139 L 248,139 L 247,138 L 245,138 L 244,137 L 241,137 L 240,136 L 238,136 L 237,135 L 232,135 L 231,134 L 226,134 L 225,133 L 211,133 L 210,132 L 202,132 L 201,133 L 186,133 L 185,134 L 179,134 L 178,135 L 175,135 L 174,136 L 171,136 L 170,137 L 168,137 L 167,138 L 165,138 L 164,139 L 163,139 L 162,140 L 161,140 L 160,141 L 158,141 L 157,142 L 156,142 L 154,144 L 153,144 L 152,145 L 151,145 L 149,147 L 148,147 L 144,151 L 143,151 L 135,159 L 135,160 L 131,164 L 131,165 L 130,166 L 130,167 L 128,169 L 128,170 L 127,171 L 127,172 L 126,173 L 126,174 L 125,175 L 125,177 L 124,178 L 124,180 L 123,181 L 123,183 L 122,184 L 122,186 L 121,187 L 121,191 L 120,192 L 120,197 L 119,198 L 119,203 L 118,204 L 118,210 L 117,211 L 117,216 L 118,217 L 118,218 L 119,218 L 120,219 L 184,219 L 188,215 L 188,214 L 190,212 L 190,211 L 194,207 L 194,206 L 203,197 L 204,197 L 207,194 L 208,194 L 210,192 L 211,192 L 212,191 L 213,191 L 214,190 L 215,190 L 216,189 L 217,189 L 218,188 L 219,188 L 220,187 L 222,187 L 223,186 L 225,186 L 226,185 L 230,185 L 231,184 L 240,184 L 241,183 L 244,183 L 245,184 L 254,184 L 255,185 L 259,185 L 260,186 L 263,186 L 264,187 L 265,187 L 266,188 L 266,192 L 265,193 L 261,193 L 260,192 L 257,192 L 256,191 L 252,191 L 251,190 L 231,190 L 230,191 L 226,191 L 225,192 L 223,192 L 222,193 L 220,193 L 219,194 L 218,194 L 217,195 L 216,195 L 215,196 L 214,196 L 213,197 L 212,197 L 211,198 L 210,198 L 207,201 L 206,201 L 195,212 L 195,213 L 193,215 L 193,216 L 191,218 L 191,219 L 187,223 L 119,223 L 118,222 L 117,222 L 115,220 L 115,219 L 114,218 L 114,209 L 115,208 L 115,200 L 116,199 L 116,193 L 117,192 L 117,187 L 118,186 L 118,183 L 119,182 L 119,180 L 120,179 L 120,177 L 121,176 L 121,175 L 122,174 L 122,173 L 124,171 L 124,170 L 125,169 L 125,168 L 126,167 L 126,166 L 128,164 L 128,163 L 130,161 L 130,160 L 143,147 L 144,147 L 147,144 L 148,144 L 150,142 L 151,142 L 152,141 L 153,141 L 155,139 L 156,139 L 157,138 L 158,138 L 159,137 L 160,137 L 161,136 L 163,136 L 164,135 L 166,135 L 167,134 L 169,134 L 170,133 L 172,133 L 173,132 L 177,132 L 178,131 L 183,131 L 184,130 Z" fill="none" stroke="black" stroke-width="1" /><path d="M 286,126 L 276,136 L 276,137 L 280,133 L 280,132 Z" fill="none" stroke="black" stroke-width="1" /><path d="M 284,124 L 279,129 L 279,130 L 274,135 L 274,137 L 274,135 L 284,125 Z" fill="none" stroke="black" stroke-width="1" /><path d="M 354,122 L 354,123 L 353,124 L 353,125 L 351,127 L 351,128 L 348,131 L 348,132 L 346,134 L 346,135 L 344,137 L 344,138 L 342,140 L 342,141 L 340,143 L 340,144 L 338,146 L 338,147 L 336,149 L 336,150 L 334,152 L 334,153 L 333,154 L 333,157 L 335,159 L 335,160 L 337,162 L 337,163 L 339,165 L 339,166 L 341,168 L 341,169 L 343,171 L 343,172 L 344,173 L 346,173 L 347,172 L 347,171 L 349,169 L 349,168 L 351,166 L 351,165 L 353,163 L 353,162 L 355,160 L 355,159 L 357,157 L 357,156 L 359,154 L 359,153 L 361,151 L 361,150 L 362,149 L 362,148 L 364,146 L 364,145 L 365,144 L 365,143 L 366,142 L 365,141 L 365,140 L 362,137 L 361,137 L 359,135 L 359,134 L 356,131 L 356,128 L 355,127 L 355,125 L 356,124 L 356,122 L 356,124 L 355,125 L 354,124 Z" fill="none" stroke="black" stroke-width="1" /><path d="M 353,125 L 354,124 L 355,125 L 355,127 L 356,128 L 356,131 L 357,132 L 357,133 L 359,135 L 359,136 L 360,137 L 361,137 L 366,142 L 364,144 L 364,145 L 362,147 L 362,148 L 361,149 L 361,150 L 359,152 L 359,153 L 357,155 L 357,156 L 355,158 L 355,159 L 353,161 L 353,162 L 351,164 L 351,165 L 349,167 L 349,168 L 347,170 L 347,171 L 345,173 L 343,171 L 343,170 L 341,168 L 341,167 L 339,165 L 339,164 L 337,162 L 337,161 L 335,159 L 335,158 L 333,156 L 333,155 L 334,154 L 334,153 L 336,151 L 336,150 L 338,148 L 338,147 L 340,145 L 340,144 L 342,142 L 342,141 L 344,139 L 344,138 L 346,136 L 346,135 L 348,133 L 348,132 L 351,129 L 351,128 L 353,126 Z" fill="none" stroke="black" stroke-width="1" /><path d="M 302,94 L 301,95 L 299,95 L 297,97 L 296,97 L 295,98 L 295,99 L 293,101 L 293,103 L 292,104 L 292,111 L 293,112 L 293,114 L 294,115 L 294,116 L 298,120 L 299,120 L 300,121 L 303,121 L 304,122 L 308,122 L 309,121 L 312,121 L 313,120 L 314,120 L 318,116 L 318,115 L 319,114 L 319,112 L 320,111 L 320,105 L 319,104 L 319,101 L 317,99 L 317,98 L 316,97 L 315,97 L 313,95 L 311,95 L 310,94 Z" fill="none" stroke="black" stroke-width="1" /><path d="M 301,95 L 302,94 L 310,94 L 311,95 L 312,95 L 314,97 L 315,97 L 317,99 L 317,100 L 319,102 L 319,104 L 320,105 L 320,111 L 319,112 L 319,113 L 318,114 L 318,115 L 313,120 L 312,120 L 311,121 L 309,121 L 308,122 L 304,122 L 303,121 L 301,121 L 300,120 L 299,120 L 294,115 L 294,114 L 293,113 L 293,112 L 292,111 L 292,104 L 293,103 L 293,102 L 295,100 L 295,99 L 297,97 L 298,97 L 300,95 Z" fill="none" stroke="black" stroke-width="1" /><path d="M 361,82 L 357,86 L 357,92 L 358,93 L 358,95 L 359,96 L 359,98 L 360,99 L 360,100 L 362,102 L 362,103 L 364,103 L 368,99 L 368,98 L 369,97 L 369,96 L 371,94 L 371,92 L 372,91 L 372,88 L 371,87 L 371,85 L 368,82 Z" fill="none" stroke="black" stroke-width="1" /><path d="M 362,82 L 367,82 L 371,86 L 371,87 L 372,88 L 372,91 L 371,92 L 371,93 L 369,95 L 369,96 L 368,97 L 368,98 L 363,103 L 362,102 L 362,101 L 360,99 L 360,98 L 359,97 L 359,96 L 358,95 L 358,93 L 357,92 L 357,87 Z" fill="none" stroke="black" stroke-width="1" /><path d="M 395,44 L 394,45 L 393,45 L 389,49 L 389,50 L 388,51 L 388,57 L 389,58 L 389,60 L 390,61 L 390,62 L 395,67 L 395,68 L 396,69 L 396,137 L 394,139 L 394,140 L 390,144 L 390,145 L 385,150 L 385,151 L 381,155 L 381,156 L 376,161 L 376,162 L 372,166 L 372,167 L 368,171 L 368,172 L 363,177 L 363,178 L 359,182 L 359,183 L 353,189 L 352,189 L 351,188 L 351,185 L 350,184 L 350,181 L 349,180 L 349,177 L 350,176 L 350,175 L 351,174 L 351,173 L 352,172 L 352,171 L 354,169 L 354,168 L 355,167 L 355,166 L 357,164 L 357,163 L 359,161 L 359,160 L 361,158 L 361,157 L 363,155 L 363,154 L 366,151 L 366,150 L 371,145 L 371,144 L 382,133 L 382,131 L 383,130 L 383,125 L 382,124 L 382,122 L 375,115 L 373,115 L 372,114 L 365,114 L 364,115 L 362,115 L 359,118 L 358,117 L 358,116 L 359,115 L 359,113 L 360,112 L 360,111 L 359,110 L 357,110 L 356,111 L 356,112 L 354,114 L 354,115 L 353,116 L 353,117 L 351,119 L 351,120 L 349,122 L 349,123 L 347,125 L 347,126 L 345,128 L 345,129 L 343,131 L 343,132 L 341,134 L 341,135 L 339,137 L 339,138 L 338,139 L 338,140 L 336,142 L 336,143 L 334,145 L 334,146 L 332,148 L 332,149 L 330,151 L 329,151 L 321,143 L 320,143 L 311,134 L 310,134 L 305,129 L 304,129 L 301,126 L 300,126 L 297,123 L 296,123 L 293,120 L 292,120 L 290,118 L 289,118 L 288,117 L 287,117 L 285,115 L 284,115 L 283,114 L 282,114 L 281,113 L 279,113 L 278,112 L 277,112 L 276,111 L 275,111 L 274,110 L 272,110 L 271,109 L 269,109 L 268,108 L 266,108 L 265,107 L 263,107 L 262,106 L 259,106 L 258,105 L 255,105 L 254,104 L 250,104 L 249,103 L 245,103 L 244,102 L 238,102 L 237,101 L 226,101 L 225,100 L 208,100 L 206,98 L 206,97 L 209,94 L 210,94 L 212,92 L 213,92 L 214,91 L 215,91 L 216,90 L 216,88 L 217,87 L 217,78 L 216,77 L 216,75 L 215,74 L 215,73 L 210,68 L 208,68 L 207,67 L 203,67 L 202,66 L 201,67 L 198,67 L 197,68 L 195,68 L 189,74 L 189,75 L 188,76 L 188,79 L 187,80 L 187,83 L 188,84 L 188,87 L 190,89 L 190,90 L 192,92 L 193,92 L 196,95 L 197,95 L 198,96 L 199,96 L 201,98 L 201,99 L 199,101 L 197,101 L 196,102 L 192,102 L 191,103 L 188,103 L 187,104 L 183,104 L 182,105 L 179,105 L 178,106 L 174,106 L 173,107 L 170,107 L 169,108 L 165,108 L 169,108 L 170,107 L 173,107 L 174,106 L 178,106 L 179,105 L 182,105 L 183,104 L 187,104 L 188,103 L 191,103 L 192,102 L 196,102 L 197,101 L 199,101 L 200,100 L 201,100 L 201,97 L 200,96 L 199,96 L 198,95 L 197,95 L 194,92 L 193,92 L 190,89 L 190,88 L 188,86 L 188,84 L 187,83 L 187,80 L 188,79 L 188,77 L 189,76 L 189,75 L 196,68 L 197,68 L 198,67 L 201,67 L 202,66 L 203,67 L 207,67 L 208,68 L 209,68 L 215,74 L 215,75 L 216,76 L 216,77 L 217,78 L 217,87 L 216,88 L 216,89 L 214,91 L 213,91 L 212,92 L 211,92 L 209,94 L 208,94 L 206,96 L 206,99 L 207,100 L 225,100 L 226,101 L 237,101 L 238,102 L 244,102 L 245,103 L 249,103 L 250,104 L 254,104 L 255,105 L 258,105 L 259,106 L 262,106 L 263,107 L 265,107 L 266,108 L 268,108 L 269,109 L 271,109 L 272,110 L 274,110 L 275,111 L 276,111 L 277,112 L 278,112 L 279,113 L 280,113 L 281,114 L 282,114 L 283,115 L 284,115 L 286,117 L 287,117 L 288,118 L 289,118 L 291,120 L 292,120 L 295,123 L 296,123 L 299,126 L 300,126 L 303,129 L 304,129 L 309,134 L 310,134 L 319,143 L 320,143 L 328,151 L 331,151 L 332,150 L 332,149 L 334,147 L 334,146 L 336,144 L 336,143 L 338,141 L 338,140 L 339,139 L 339,138 L 341,136 L 341,135 L 343,133 L 343,132 L 345,130 L 345,129 L 347,127 L 347,126 L 349,124 L 349,123 L 351,121 L 351,120 L 353,118 L 353,117 L 354,116 L 354,115 L 356,113 L 356,112 L 358,110 L 359,110 L 360,111 L 360,112 L 359,113 L 359,115 L 358,116 L 358,117 L 359,118 L 358,119 L 359,118 L 360,118 L 363,115 L 364,115 L 365,114 L 372,114 L 373,115 L 374,115 L 382,123 L 382,124 L 383,125 L 383,130 L 382,131 L 382,132 L 371,143 L 371,144 L 366,149 L 366,150 L 363,153 L 363,154 L 361,156 L 361,157 L 359,159 L 359,160 L 357,162 L 357,163 L 355,165 L 355,166 L 354,167 L 354,168 L 352,170 L 352,171 L 351,172 L 351,173 L 350,174 L 350,176 L 349,177 L 349,180 L 350,181 L 350,184 L 351,185 L 351,188 L 352,189 L 354,189 L 359,184 L 359,183 L 363,179 L 363,178 L 368,173 L 368,172 L 372,168 L 372,167 L 376,163 L 376,162 L 381,157 L 381,156 L 385,152 L 385,151 L 390,146 L 390,145 L 394,141 L 394,140 L 396,138 L 396,69 L 395,68 L 395,66 L 390,61 L 390,60 L 389,59 L 389,58 L 388,57 L 388,51 L 394,45 L 395,45 L 396,44 L 404,44 L 406,46 L 407,46 L 408,47 L 408,48 L 410,50 L 410,51 L 411,52 L 411,58 L 410,59 L 410,60 L 406,64 L 405,64 L 403,66 L 402,66 L 402,67 L 401,68 L 401,139 L 399,141 L 399,142 L 395,146 L 395,147 L 390,152 L 390,153 L 386,157 L 386,158 L 381,163 L 381,164 L 377,168 L 377,169 L 372,174 L 372,175 L 368,179 L 368,180 L 364,184 L 364,185 L 359,190 L 359,191 L 356,194 L 356,198 L 357,199 L 357,201 L 358,202 L 358,204 L 359,205 L 359,207 L 360,208 L 360,210 L 361,211 L 361,213 L 362,214 L 362,217 L 364,217 L 368,213 L 369,213 L 374,208 L 375,208 L 377,206 L 378,206 L 380,204 L 381,204 L 382,203 L 383,203 L 385,201 L 386,201 L 387,200 L 388,200 L 389,199 L 391,199 L 392,198 L 394,198 L 395,197 L 397,197 L 398,196 L 404,196 L 405,195 L 414,195 L 415,196 L 420,196 L 421,197 L 424,197 L 425,198 L 427,198 L 428,199 L 430,199 L 431,200 L 432,200 L 433,201 L 434,201 L 435,202 L 436,202 L 438,204 L 439,204 L 440,205 L 441,205 L 443,207 L 444,207 L 456,219 L 456,220 L 458,222 L 458,223 L 459,224 L 459,225 L 460,226 L 460,227 L 461,228 L 461,229 L 462,230 L 462,231 L 463,232 L 463,234 L 464,235 L 464,237 L 465,238 L 465,242 L 466,243 L 466,261 L 465,262 L 465,265 L 464,266 L 464,269 L 463,270 L 463,271 L 462,272 L 462,274 L 461,275 L 461,276 L 460,277 L 460,278 L 458,280 L 458,281 L 457,282 L 457,283 L 454,286 L 454,287 L 445,296 L 444,296 L 441,299 L 440,299 L 439,300 L 438,300 L 437,301 L 436,301 L 434,303 L 433,303 L 432,304 L 431,304 L 430,305 L 428,305 L 427,306 L 425,306 L 424,307 L 421,307 L 420,308 L 414,308 L 413,309 L 406,309 L 405,308 L 399,308 L 398,307 L 395,307 L 394,306 L 391,306 L 390,305 L 388,305 L 387,304 L 386,304 L 385,303 L 384,303 L 383,302 L 382,302 L 381,301 L 380,301 L 379,300 L 374,300 L 369,305 L 368,305 L 366,307 L 365,307 L 364,308 L 362,308 L 361,309 L 352,309 L 351,310 L 350,310 L 349,311 L 349,315 L 350,316 L 350,320 L 351,321 L 351,324 L 352,325 L 352,329 L 353,330 L 353,332 L 352,333 L 352,334 L 351,335 L 351,336 L 349,338 L 349,340 L 348,341 L 348,351 L 342,357 L 341,357 L 339,359 L 337,359 L 336,360 L 335,360 L 332,363 L 332,385 L 331,386 L 331,389 L 330,390 L 330,391 L 329,392 L 329,393 L 328,394 L 328,395 L 322,401 L 321,401 L 319,403 L 318,403 L 317,404 L 314,404 L 313,405 L 300,405 L 299,404 L 293,404 L 292,403 L 287,403 L 286,402 L 282,402 L 281,401 L 278,401 L 277,400 L 274,400 L 273,399 L 270,399 L 269,398 L 266,398 L 265,397 L 263,397 L 262,396 L 260,396 L 259,395 L 256,395 L 255,394 L 253,394 L 252,393 L 250,393 L 249,392 L 247,392 L 246,391 L 244,391 L 243,390 L 241,390 L 240,389 L 238,389 L 237,388 L 232,388 L 232,389 L 233,390 L 233,391 L 234,392 L 234,393 L 235,394 L 235,395 L 237,397 L 237,398 L 238,399 L 238,400 L 239,401 L 239,402 L 241,404 L 241,405 L 242,406 L 242,407 L 244,409 L 244,410 L 245,411 L 245,412 L 246,413 L 246,414 L 248,416 L 248,417 L 249,418 L 249,419 L 250,420 L 250,421 L 252,423 L 252,424 L 253,425 L 253,426 L 255,428 L 267,428 L 268,427 L 276,427 L 277,426 L 299,426 L 300,427 L 303,427 L 304,428 L 306,428 L 307,429 L 308,429 L 310,431 L 311,431 L 313,433 L 314,433 L 320,439 L 323,439 L 324,438 L 325,438 L 326,437 L 327,437 L 328,436 L 329,436 L 330,435 L 331,435 L 332,434 L 333,434 L 334,433 L 337,433 L 338,432 L 343,432 L 344,431 L 345,431 L 346,432 L 351,432 L 352,433 L 354,433 L 355,434 L 356,434 L 358,436 L 359,436 L 367,444 L 367,445 L 369,447 L 369,448 L 370,449 L 370,450 L 373,453 L 386,453 L 387,452 L 391,452 L 392,451 L 395,451 L 396,450 L 399,450 L 400,449 L 403,449 L 404,448 L 411,448 L 412,447 L 415,447 L 416,448 L 424,448 L 425,449 L 428,449 L 429,450 L 431,450 L 432,451 L 433,451 L 434,452 L 435,452 L 436,453 L 437,453 L 438,454 L 439,454 L 441,456 L 442,456 L 445,459 L 446,459 L 453,466 L 453,467 L 455,469 L 455,470 L 457,472 L 457,473 L 459,475 L 459,476 L 460,477 L 460,478 L 461,479 L 461,480 L 462,481 L 462,483 L 463,484 L 463,487 L 464,488 L 464,494 L 465,495 L 465,530 L 464,531 L 464,549 L 462,551 L 461,551 L 460,552 L 314,552 L 313,551 L 309,551 L 308,550 L 307,550 L 304,547 L 304,546 L 303,545 L 303,539 L 304,538 L 304,535 L 305,534 L 305,532 L 306,531 L 306,528 L 307,527 L 307,525 L 308,524 L 308,523 L 310,521 L 310,520 L 315,515 L 316,515 L 317,514 L 318,514 L 320,512 L 323,512 L 324,511 L 354,511 L 355,510 L 355,509 L 356,508 L 356,505 L 355,504 L 355,502 L 354,501 L 333,501 L 332,502 L 326,502 L 325,503 L 321,503 L 320,504 L 318,504 L 317,505 L 315,505 L 314,506 L 312,506 L 311,507 L 310,507 L 308,509 L 307,509 L 303,513 L 303,514 L 301,516 L 301,517 L 300,518 L 300,519 L 299,520 L 299,522 L 298,523 L 298,525 L 297,526 L 297,528 L 296,529 L 296,533 L 295,534 L 295,547 L 294,548 L 294,550 L 293,551 L 292,551 L 291,552 L 196,552 L 195,551 L 194,551 L 192,549 L 192,547 L 204,535 L 205,535 L 207,533 L 208,533 L 209,532 L 210,532 L 211,531 L 212,531 L 213,530 L 247,530 L 248,529 L 250,529 L 251,528 L 251,521 L 250,521 L 249,520 L 237,520 L 236,519 L 232,519 L 231,520 L 217,520 L 216,521 L 212,521 L 211,522 L 209,522 L 208,523 L 206,523 L 205,524 L 204,524 L 203,525 L 201,525 L 199,527 L 198,527 L 197,528 L 196,528 L 189,535 L 189,536 L 186,539 L 186,540 L 185,541 L 185,542 L 183,544 L 183,545 L 182,546 L 182,547 L 181,548 L 181,549 L 179,551 L 56,551 L 54,549 L 54,507 L 53,506 L 53,504 L 52,503 L 52,502 L 51,501 L 51,500 L 50,499 L 50,498 L 49,497 L 49,496 L 47,494 L 47,493 L 46,492 L 46,491 L 45,490 L 45,489 L 44,488 L 44,487 L 43,486 L 43,485 L 42,484 L 42,483 L 40,481 L 40,479 L 39,478 L 39,477 L 38,476 L 38,473 L 37,472 L 37,456 L 38,455 L 38,452 L 39,451 L 39,450 L 41,448 L 41,447 L 49,439 L 50,439 L 53,436 L 54,436 L 56,434 L 57,434 L 58,433 L 59,433 L 61,431 L 62,431 L 64,429 L 65,429 L 67,427 L 68,427 L 70,425 L 71,425 L 73,423 L 74,423 L 76,421 L 77,421 L 80,418 L 81,418 L 83,416 L 84,416 L 86,414 L 87,414 L 90,411 L 91,411 L 94,408 L 95,408 L 97,406 L 98,406 L 101,403 L 102,403 L 105,400 L 106,400 L 108,398 L 108,395 L 99,386 L 99,385 L 74,360 L 63,360 L 61,358 L 60,358 L 55,353 L 55,352 L 54,351 L 54,345 L 55,344 L 55,342 L 56,341 L 56,340 L 58,338 L 58,337 L 60,335 L 61,335 L 63,333 L 65,333 L 66,332 L 68,332 L 69,333 L 72,333 L 74,335 L 75,335 L 80,340 L 80,341 L 81,342 L 81,343 L 82,344 L 82,348 L 83,349 L 83,353 L 116,386 L 120,386 L 122,384 L 122,383 L 123,382 L 124,382 L 125,381 L 130,381 L 135,386 L 135,387 L 136,388 L 136,389 L 137,390 L 137,397 L 131,403 L 127,403 L 126,404 L 125,404 L 124,403 L 121,403 L 120,404 L 119,404 L 118,405 L 117,405 L 111,411 L 110,411 L 106,415 L 105,415 L 102,418 L 101,418 L 98,421 L 97,421 L 94,424 L 93,424 L 91,426 L 90,426 L 87,429 L 86,429 L 84,431 L 83,431 L 81,433 L 80,433 L 78,435 L 77,435 L 75,437 L 74,437 L 73,438 L 72,438 L 70,440 L 69,440 L 67,442 L 66,442 L 64,444 L 63,444 L 61,446 L 60,446 L 57,449 L 56,449 L 53,452 L 53,453 L 51,455 L 51,456 L 50,457 L 50,458 L 49,459 L 49,469 L 50,470 L 50,473 L 51,474 L 51,475 L 52,476 L 52,477 L 53,478 L 53,479 L 54,480 L 56,480 L 58,478 L 58,477 L 59,476 L 59,475 L 60,474 L 60,473 L 63,470 L 63,469 L 65,467 L 65,466 L 73,458 L 74,458 L 77,455 L 78,455 L 79,454 L 80,454 L 82,452 L 83,452 L 84,451 L 86,451 L 87,450 L 89,450 L 90,449 L 93,449 L 94,448 L 113,448 L 114,449 L 118,449 L 119,450 L 122,450 L 123,451 L 126,451 L 127,452 L 129,452 L 130,453 L 131,453 L 132,454 L 143,454 L 144,455 L 172,455 L 173,456 L 201,456 L 202,457 L 222,457 L 223,456 L 223,453 L 221,451 L 221,450 L 220,449 L 220,448 L 219,447 L 219,446 L 217,444 L 217,443 L 216,442 L 216,441 L 215,440 L 215,439 L 213,437 L 213,436 L 212,435 L 212,434 L 210,432 L 210,431 L 209,430 L 209,429 L 208,428 L 208,427 L 206,425 L 206,424 L 205,423 L 205,422 L 204,421 L 204,420 L 202,418 L 202,417 L 201,416 L 201,415 L 199,413 L 199,412 L 198,411 L 198,410 L 197,409 L 197,408 L 195,406 L 195,405 L 194,404 L 194,403 L 193,402 L 193,401 L 191,399 L 191,398 L 190,397 L 190,396 L 189,395 L 189,394 L 187,392 L 186,392 L 185,391 L 177,391 L 176,390 L 169,390 L 168,389 L 163,389 L 162,388 L 160,388 L 159,387 L 156,387 L 155,386 L 153,386 L 152,385 L 150,385 L 149,384 L 148,384 L 147,383 L 146,383 L 145,382 L 143,382 L 141,380 L 140,380 L 139,379 L 138,379 L 137,378 L 136,378 L 134,376 L 133,376 L 132,375 L 131,375 L 129,373 L 128,373 L 125,370 L 124,370 L 122,368 L 121,368 L 116,363 L 115,363 L 98,346 L 98,345 L 93,340 L 93,339 L 90,336 L 90,335 L 88,333 L 88,332 L 86,330 L 86,329 L 84,327 L 84,326 L 83,325 L 83,324 L 81,322 L 81,321 L 80,320 L 80,319 L 79,318 L 79,317 L 78,316 L 78,315 L 77,314 L 77,313 L 76,312 L 76,311 L 75,310 L 75,308 L 74,307 L 74,306 L 73,305 L 73,303 L 72,302 L 72,300 L 71,299 L 71,297 L 70,296 L 70,294 L 69,293 L 69,290 L 68,289 L 68,286 L 67,285 L 67,281 L 66,280 L 66,276 L 65,275 L 65,267 L 64,266 L 64,240 L 65,239 L 65,231 L 66,230 L 66,225 L 67,224 L 67,220 L 68,219 L 68,216 L 69,215 L 69,212 L 70,211 L 70,208 L 71,207 L 71,205 L 72,204 L 72,202 L 73,201 L 73,199 L 74,198 L 74,197 L 75,196 L 75,194 L 76,193 L 76,192 L 77,191 L 77,189 L 78,188 L 78,187 L 79,186 L 79,185 L 80,184 L 80,183 L 81,182 L 81,181 L 82,180 L 82,179 L 84,177 L 84,176 L 85,175 L 85,174 L 86,173 L 86,171 L 87,170 L 86,169 L 86,167 L 84,165 L 84,164 L 83,163 L 82,163 L 80,161 L 79,161 L 78,160 L 76,160 L 75,159 L 64,159 L 63,158 L 61,158 L 60,157 L 59,157 L 58,156 L 57,156 L 53,152 L 53,151 L 52,150 L 52,149 L 51,148 L 51,142 L 52,141 L 52,139 L 53,138 L 53,137 L 59,131 L 60,131 L 61,130 L 63,130 L 64,129 L 69,129 L 70,130 L 72,130 L 78,136 L 78,137 L 79,138 L 79,139 L 80,140 L 80,147 L 79,148 L 79,153 L 80,154 L 80,156 L 81,157 L 81,158 L 86,163 L 87,163 L 88,164 L 93,164 L 93,163 L 97,159 L 97,158 L 102,153 L 102,152 L 106,148 L 106,147 L 107,146 L 107,145 L 108,144 L 107,143 L 107,141 L 76,110 L 68,110 L 67,109 L 65,109 L 64,108 L 63,108 L 62,107 L 61,107 L 58,104 L 58,103 L 56,101 L 56,99 L 55,98 L 55,93 L 56,92 L 56,91 L 57,90 L 57,89 L 62,84 L 63,84 L 64,83 L 66,83 L 67,82 L 71,82 L 72,83 L 73,83 L 74,84 L 75,84 L 80,89 L 80,90 L 81,91 L 81,92 L 82,93 L 82,100 L 79,103 L 79,107 L 81,109 L 81,110 L 94,123 L 94,124 L 107,137 L 107,138 L 109,140 L 114,140 L 119,135 L 120,135 L 124,131 L 125,131 L 128,128 L 129,128 L 131,126 L 132,126 L 134,124 L 135,124 L 137,122 L 138,122 L 139,121 L 140,121 L 142,119 L 143,119 L 144,118 L 145,118 L 146,117 L 147,117 L 148,116 L 149,116 L 150,115 L 151,115 L 152,114 L 153,114 L 154,113 L 155,113 L 157,111 L 159,111 L 160,110 L 161,110 L 161,107 L 159,107 L 158,106 L 156,106 L 154,104 L 153,104 L 152,103 L 151,103 L 148,100 L 148,99 L 146,97 L 146,95 L 145,94 L 145,87 L 146,86 L 146,85 L 152,79 L 153,79 L 155,77 L 164,77 L 166,79 L 167,79 L 172,84 L 172,85 L 174,87 L 174,89 L 175,90 L 175,93 L 174,94 L 174,96 L 172,98 L 172,99 L 165,106 L 166,106 L 172,100 L 172,99 L 174,97 L 174,94 L 175,93 L 175,90 L 174,89 L 174,87 L 173,86 L 173,85 L 172,84 L 172,83 L 168,79 L 167,79 L 166,78 L 165,78 L 164,77 L 155,77 L 154,78 L 153,78 L 152,79 L 151,79 L 146,84 L 146,86 L 145,87 L 145,94 L 146,95 L 146,97 L 147,98 L 147,99 L 148,100 L 148,101 L 150,103 L 151,103 L 152,104 L 153,104 L 154,105 L 155,105 L 156,106 L 158,106 L 159,107 L 160,107 L 161,108 L 161,109 L 159,111 L 157,111 L 156,112 L 155,112 L 154,113 L 153,113 L 152,114 L 151,114 L 150,115 L 149,115 L 148,116 L 147,116 L 146,117 L 145,117 L 144,118 L 143,118 L 142,119 L 141,119 L 139,121 L 138,121 L 137,122 L 136,122 L 134,124 L 133,124 L 131,126 L 130,126 L 128,128 L 127,128 L 124,131 L 123,131 L 119,135 L 118,135 L 113,140 L 110,140 L 107,137 L 107,136 L 94,123 L 94,122 L 81,109 L 81,108 L 79,106 L 79,104 L 81,102 L 81,101 L 82,100 L 82,93 L 81,92 L 81,90 L 80,89 L 80,88 L 76,84 L 75,84 L 74,83 L 72,83 L 71,82 L 67,82 L 66,83 L 63,83 L 62,84 L 61,84 L 57,88 L 57,89 L 56,90 L 56,92 L 55,93 L 55,98 L 56,99 L 56,102 L 58,104 L 58,105 L 60,107 L 61,107 L 62,108 L 63,108 L 64,109 L 67,109 L 68,110 L 75,110 L 107,142 L 107,143 L 108,144 L 106,146 L 106,147 L 102,151 L 102,152 L 97,157 L 97,158 L 93,162 L 93,163 L 92,164 L 89,164 L 88,163 L 87,163 L 81,157 L 81,156 L 80,155 L 80,154 L 79,153 L 79,148 L 80,147 L 80,140 L 79,139 L 79,137 L 78,136 L 78,135 L 74,131 L 73,131 L 72,130 L 70,130 L 69,129 L 64,129 L 63,130 L 61,130 L 60,131 L 58,131 L 53,136 L 53,138 L 52,139 L 52,141 L 51,142 L 51,148 L 52,149 L 52,151 L 53,152 L 53,153 L 56,156 L 57,156 L 58,157 L 60,157 L 61,158 L 63,158 L 64,159 L 75,159 L 76,160 L 77,160 L 78,161 L 79,161 L 81,163 L 82,163 L 84,165 L 84,166 L 86,168 L 86,169 L 87,170 L 86,171 L 86,172 L 85,173 L 85,174 L 84,175 L 84,176 L 82,178 L 82,179 L 81,180 L 81,181 L 80,182 L 80,184 L 79,185 L 79,186 L 78,187 L 78,188 L 77,189 L 77,191 L 76,192 L 76,193 L 75,194 L 75,196 L 74,197 L 74,198 L 73,199 L 73,201 L 72,202 L 72,204 L 71,205 L 71,207 L 70,208 L 70,211 L 69,212 L 69,215 L 68,216 L 68,219 L 67,220 L 67,224 L 66,225 L 66,230 L 65,231 L 65,239 L 64,240 L 64,266 L 65,267 L 65,275 L 66,276 L 66,280 L 67,281 L 67,285 L 68,286 L 68,289 L 69,290 L 69,293 L 70,294 L 70,296 L 71,297 L 71,299 L 72,300 L 72,302 L 73,303 L 73,305 L 74,306 L 74,307 L 75,308 L 75,310 L 76,311 L 76,313 L 77,314 L 77,315 L 78,316 L 78,317 L 79,318 L 79,319 L 80,320 L 80,321 L 81,322 L 81,323 L 83,325 L 83,326 L 84,327 L 84,328 L 86,330 L 86,331 L 88,333 L 88,334 L 90,336 L 90,337 L 93,340 L 93,341 L 98,346 L 98,347 L 114,363 L 115,363 L 120,368 L 121,368 L 123,370 L 124,370 L 127,373 L 128,373 L 130,375 L 131,375 L 132,376 L 133,376 L 135,378 L 136,378 L 137,379 L 138,379 L 139,380 L 140,380 L 141,381 L 142,381 L 143,382 L 145,382 L 146,383 L 147,383 L 148,384 L 149,384 L 150,385 L 152,385 L 153,386 L 155,386 L 156,387 L 159,387 L 160,388 L 162,388 L 163,389 L 168,389 L 169,390 L 176,390 L 177,391 L 185,391 L 189,395 L 189,396 L 190,397 L 190,398 L 191,399 L 191,400 L 193,402 L 193,403 L 194,404 L 194,405 L 195,406 L 195,407 L 197,409 L 197,410 L 198,411 L 198,412 L 199,413 L 199,414 L 201,416 L 201,417 L 202,418 L 202,419 L 204,421 L 204,422 L 205,423 L 205,424 L 206,425 L 206,426 L 208,428 L 208,429 L 209,430 L 209,431 L 210,432 L 210,433 L 212,435 L 212,436 L 213,437 L 213,438 L 215,440 L 215,441 L 216,442 L 216,443 L 217,444 L 217,445 L 219,447 L 219,448 L 220,449 L 220,450 L 221,451 L 221,452 L 223,454 L 223,455 L 221,457 L 202,457 L 201,456 L 173,456 L 172,455 L 144,455 L 143,454 L 132,454 L 131,453 L 130,453 L 129,452 L 127,452 L 126,451 L 123,451 L 122,450 L 119,450 L 118,449 L 114,449 L 113,448 L 94,448 L 93,449 L 90,449 L 89,450 L 87,450 L 86,451 L 84,451 L 83,452 L 81,452 L 79,454 L 78,454 L 77,455 L 76,455 L 73,458 L 72,458 L 65,465 L 65,466 L 63,468 L 63,469 L 60,472 L 60,473 L 59,474 L 59,475 L 58,476 L 58,477 L 55,480 L 53,478 L 53,477 L 51,475 L 51,474 L 50,473 L 50,470 L 49,469 L 49,459 L 51,457 L 51,456 L 53,454 L 53,453 L 57,449 L 58,449 L 61,446 L 62,446 L 64,444 L 65,444 L 67,442 L 68,442 L 70,440 L 71,440 L 73,438 L 74,438 L 75,437 L 76,437 L 78,435 L 79,435 L 81,433 L 82,433 L 84,431 L 85,431 L 87,429 L 88,429 L 91,426 L 92,426 L 94,424 L 95,424 L 98,421 L 99,421 L 102,418 L 103,418 L 106,415 L 107,415 L 111,411 L 112,411 L 118,405 L 119,405 L 121,403 L 124,403 L 125,404 L 126,404 L 127,403 L 131,403 L 132,402 L 133,402 L 136,399 L 136,398 L 137,397 L 137,390 L 136,389 L 136,387 L 135,386 L 135,385 L 132,382 L 131,382 L 130,381 L 124,381 L 123,382 L 122,382 L 122,383 L 119,386 L 117,386 L 83,352 L 83,349 L 82,348 L 82,344 L 81,343 L 81,341 L 80,340 L 80,339 L 76,335 L 75,335 L 74,334 L 73,334 L 72,333 L 69,333 L 68,332 L 66,332 L 65,333 L 62,333 L 60,335 L 59,335 L 58,336 L 58,337 L 56,339 L 56,341 L 55,342 L 55,344 L 54,345 L 54,351 L 55,352 L 55,354 L 59,358 L 60,358 L 61,359 L 62,359 L 63,360 L 73,360 L 99,386 L 99,387 L 108,396 L 108,397 L 105,400 L 104,400 L 101,403 L 100,403 L 97,406 L 96,406 L 94,408 L 93,408 L 90,411 L 89,411 L 86,414 L 85,414 L 83,416 L 82,416 L 80,418 L 79,418 L 76,421 L 75,421 L 73,423 L 72,423 L 70,425 L 69,425 L 67,427 L 66,427 L 64,429 L 63,429 L 61,431 L 60,431 L 58,433 L 57,433 L 56,434 L 55,434 L 53,436 L 52,436 L 49,439 L 48,439 L 41,446 L 41,447 L 39,449 L 39,451 L 38,452 L 38,455 L 37,456 L 37,472 L 38,473 L 38,476 L 39,477 L 39,478 L 40,479 L 40,481 L 41,482 L 41,483 L 42,484 L 42,485 L 43,486 L 43,487 L 44,488 L 44,489 L 45,490 L 45,491 L 46,492 L 46,493 L 47,494 L 47,495 L 49,497 L 49,498 L 50,499 L 50,500 L 51,501 L 51,502 L 52,503 L 52,504 L 53,505 L 53,506 L 54,507 L 54,549 L 55,550 L 55,551 L 180,551 L 181,550 L 181,549 L 182,548 L 182,547 L 183,546 L 183,545 L 185,543 L 185,542 L 186,541 L 186,540 L 189,537 L 189,536 L 197,528 L 198,528 L 199,527 L 200,527 L 202,525 L 203,525 L 204,524 L 205,524 L 206,523 L 208,523 L 209,522 L 211,522 L 212,521 L 216,521 L 217,520 L 231,520 L 232,519 L 236,519 L 237,520 L 248,520 L 249,521 L 250,521 L 251,522 L 251,527 L 249,529 L 248,529 L 247,530 L 213,530 L 212,531 L 211,531 L 210,532 L 208,532 L 207,533 L 206,533 L 204,535 L 203,535 L 193,545 L 193,546 L 192,547 L 192,549 L 193,550 L 193,551 L 195,551 L 196,552 L 291,552 L 292,551 L 294,551 L 294,548 L 295,547 L 295,534 L 296,533 L 296,529 L 297,528 L 297,526 L 298,525 L 298,523 L 299,522 L 299,520 L 301,518 L 301,517 L 303,515 L 303,514 L 308,509 L 309,509 L 311,507 L 312,507 L 313,506 L 314,506 L 315,505 L 317,505 L 318,504 L 320,504 L 321,503 L 325,503 L 326,502 L 332,502 L 333,501 L 353,501 L 355,503 L 355,504 L 356,505 L 356,508 L 353,511 L 324,511 L 323,512 L 320,512 L 319,513 L 318,513 L 317,514 L 316,514 L 315,515 L 314,515 L 310,519 L 310,520 L 308,522 L 308,524 L 307,525 L 307,527 L 306,528 L 306,531 L 305,532 L 305,534 L 304,535 L 304,538 L 303,539 L 303,545 L 304,546 L 304,548 L 306,550 L 307,550 L 308,551 L 313,551 L 314,552 L 460,552 L 461,551 L 463,551 L 464,550 L 464,531 L 465,530 L 465,495 L 464,494 L 464,488 L 463,487 L 463,484 L 462,483 L 462,481 L 461,480 L 461,478 L 460,477 L 460,476 L 459,475 L 459,474 L 457,472 L 457,471 L 455,469 L 455,468 L 453,466 L 453,465 L 447,459 L 446,459 L 443,456 L 442,456 L 440,454 L 439,454 L 438,453 L 437,453 L 436,452 L 434,452 L 433,451 L 432,451 L 431,450 L 429,450 L 428,449 L 425,449 L 424,448 L 416,448 L 415,447 L 412,447 L 411,448 L 404,448 L 403,449 L 400,449 L 399,450 L 396,450 L 395,451 L 392,451 L 391,452 L 387,452 L 386,453 L 374,453 L 370,449 L 370,448 L 369,447 L 369,446 L 366,443 L 366,442 L 360,436 L 359,436 L 357,434 L 355,434 L 354,433 L 352,433 L 351,432 L 346,432 L 345,431 L 344,431 L 343,432 L 338,432 L 337,433 L 334,433 L 333,434 L 332,434 L 331,435 L 329,435 L 328,436 L 327,436 L 326,437 L 325,437 L 323,439 L 321,439 L 315,433 L 314,433 L 312,431 L 311,431 L 309,429 L 307,429 L 306,428 L 304,428 L 303,427 L 300,427 L 299,426 L 277,426 L 276,427 L 268,427 L 267,428 L 256,428 L 253,425 L 253,424 L 252,423 L 252,422 L 250,420 L 250,419 L 249,418 L 249,417 L 248,416 L 248,415 L 246,413 L 246,412 L 245,411 L 245,410 L 244,409 L 244,408 L 242,406 L 242,405 L 241,404 L 241,403 L 239,401 L 239,400 L 238,399 L 238,398 L 237,397 L 237,396 L 235,394 L 235,393 L 234,392 L 234,391 L 232,389 L 233,388 L 237,388 L 238,389 L 240,389 L 241,390 L 243,390 L 244,391 L 246,391 L 247,392 L 249,392 L 250,393 L 252,393 L 253,394 L 255,394 L 256,395 L 259,395 L 260,396 L 262,396 L 263,397 L 265,397 L 266,398 L 269,398 L 270,399 L 273,399 L 274,400 L 277,400 L 278,401 L 281,401 L 282,402 L 286,402 L 287,403 L 292,403 L 293,404 L 299,404 L 300,405 L 313,405 L 314,404 L 317,404 L 318,403 L 320,403 L 322,401 L 323,401 L 328,396 L 328,395 L 329,394 L 329,393 L 330,392 L 330,390 L 331,389 L 331,386 L 332,385 L 332,364 L 337,359 L 339,359 L 340,358 L 341,358 L 342,357 L 343,357 L 348,352 L 348,341 L 349,340 L 349,339 L 351,337 L 351,336 L 352,335 L 352,333 L 353,332 L 353,330 L 352,329 L 352,325 L 351,324 L 351,321 L 350,320 L 350,316 L 349,315 L 349,312 L 352,309 L 361,309 L 362,308 L 364,308 L 365,307 L 367,307 L 369,305 L 370,305 L 375,300 L 378,300 L 379,301 L 380,301 L 381,302 L 383,302 L 384,303 L 385,303 L 386,304 L 387,304 L 388,305 L 390,305 L 391,306 L 394,306 L 395,307 L 398,307 L 399,308 L 405,308 L 406,309 L 413,309 L 414,308 L 420,308 L 421,307 L 424,307 L 425,306 L 427,306 L 428,305 L 430,305 L 431,304 L 433,304 L 434,303 L 435,303 L 437,301 L 438,301 L 439,300 L 440,300 L 441,299 L 442,299 L 445,296 L 446,296 L 454,288 L 454,287 L 457,284 L 457,283 L 458,282 L 458,281 L 460,279 L 460,278 L 461,277 L 461,275 L 462,274 L 462,272 L 463,271 L 463,270 L 464,269 L 464,266 L 465,265 L 465,262 L 466,261 L 466,243 L 465,242 L 465,238 L 464,237 L 464,235 L 463,234 L 463,232 L 462,231 L 462,229 L 461,228 L 461,227 L 460,226 L 460,225 L 459,224 L 459,223 L 458,222 L 458,221 L 456,219 L 456,218 L 445,207 L 444,207 L 442,205 L 441,205 L 440,204 L 439,204 L 437,202 L 436,202 L 435,201 L 433,201 L 432,200 L 431,200 L 430,199 L 428,199 L 427,198 L 425,198 L 424,197 L 421,197 L 420,196 L 415,196 L 414,195 L 405,195 L 404,196 L 398,196 L 397,197 L 395,197 L 394,198 L 392,198 L 391,199 L 389,199 L 388,200 L 386,200 L 385,201 L 384,201 L 382,203 L 381,203 L 380,204 L 379,204 L 377,206 L 376,206 L 374,208 L 373,208 L 368,213 L 367,213 L 363,217 L 362,216 L 362,214 L 361,213 L 361,211 L 360,210 L 360,208 L 359,207 L 359,205 L 358,204 L 358,202 L 357,201 L 357,199 L 356,198 L 356,195 L 359,192 L 359,191 L 364,186 L 364,185 L 368,181 L 368,180 L 372,176 L 372,175 L 377,170 L 377,169 L 381,165 L 381,164 L 386,159 L 386,158 L 390,154 L 390,153 L 395,148 L 395,147 L 399,143 L 399,142 L 400,141 L 400,140 L 401,139 L 401,68 L 403,66 L 404,66 L 406,64 L 407,64 L 410,61 L 410,59 L 411,58 L 411,52 L 410,51 L 410,49 L 408,47 L 408,46 L 407,46 L 405,44 Z" fill="none" stroke="black" stroke-width="1" /></svg>